<?xml version="1.0" encoding="utf-8"?>
<!-- Generator: Adobe Illustrator 21.0.0, SVG Export Plug-In . SVG Version: 6.00 Build 0)  -->
<svg version="1.1" id="bear" xmlns="http://www.w3.org/2000/svg" xmlns:xlink="http://www.w3.org/1999/xlink" x="0px" y="0px"
	 viewBox="0 0 256 256" style="enable-background:new 0 0 256 256;" xml:space="preserve">
<style type="text/css">
	.st0{fill:#673200;}
	.st1{fill:#FFAACA;}
	.st2{fill:#C65B00;}
	.st3{fill:none;stroke:#000000;stroke-width:3;stroke-linecap:round;stroke-linejoin:round;}
</style>
<g id="left-ear_1_">
	<circle id="left-ear" class="st0" cx="43.9" cy="49.2" r="34.6"/>
	<circle id="left-ear-pink" class="st1" cx="46.4" cy="58" r="14.8"/>
</g>
<g id="right-ear_1_">
	<circle id="right-ear" class="st0" cx="212.1" cy="49.2" r="34.6"/>
	<circle id="right-ear-pink" class="st1" cx="209.6" cy="58" r="14.8"/>
</g>
<g id="head_1_">
	<circle id="head" class="st0" cx="128" cy="133.2" r="108.1"/>
	<circle id="mouth-spot" class="st2" cx="128" cy="172.7" r="42.3"/>
	<path id="right-spot" class="st2" d="M174,35.4c-27.9,23.1-31.9,64.4-8.8,92.4c16.9,20.5,44.4,28.7,69.8,20.9
		C241.8,101.6,217,55.7,174,35.4z"/>
	<path id="left-spot" class="st2" d="M19.9,133.2c0,5.2,0.4,10.3,1.1,15.4c34.7,10.5,71.3-9.1,81.8-43.7
		c7.7-25.2-0.5-52.6-20.8-69.5C44.1,53.2,19.9,91.3,19.9,133.2L19.9,133.2z"/>
	<path id="mouth" class="st3" d="M101.2,187.1c14.5,14.6,38.1,14.6,52.6,0.1c0,0,0.1-0.1,0.1-0.1"/>
</g>
<circle id="left-eye" cx="84.8" cy="106.5" r="9.3"/>
<circle id="right-eye" cx="171.2" cy="106.5" r="9.3"/>
<circle id="nose" class="st1" cx="128" cy="138.1" r="13"/>
</svg>
